<svg width="19" height="18" viewBox="0 0 19 18" fill="none" xmlns="http://www.w3.org/2000/svg">
    <path d="M9.5 15.75C12.6444 15.75 15.2867 13.5999 16.0368 10.6897M9.5 15.75C6.35557 15.75 3.71331 13.5999 2.96322 10.6897M9.5 15.75C11.364 15.75 12.875 12.7279 12.875 9C12.875 5.27208 11.364 2.25 9.5 2.25M9.5 15.75C7.63604 15.75 6.125 12.7279 6.125 9C6.125 5.27208 7.63604 2.25 9.5 2.25M9.5 2.25C12.0239 2.25 14.2243 3.6352 15.3823 5.68684M9.5 2.25C6.97611 2.25 4.77574 3.6352 3.61769 5.68684M15.3823 5.68684C13.8048 7.05029 11.7487 7.875 9.5 7.875C7.25129 7.875 5.1952 7.05029 3.61769 5.68684M15.3823 5.68684C15.9348 6.66557 16.25 7.79597 16.25 9C16.25 9.58349 16.176 10.1497 16.0368 10.6897M16.0368 10.6897C14.1 11.7636 11.8714 12.375 9.5 12.375C7.12858 12.375 4.89997 11.7636 2.96322 10.6897M2.96322 10.6897C2.82403 10.1497 2.75 9.58349 2.75 9C2.75 7.79597 3.06524 6.66557 3.61769 5.68684" stroke="#7DBA28" stroke-width="1.5" stroke-linecap="round" stroke-linejoin="round"/>
</svg>
