<svg width="31" height="30" viewBox="0 0 31 30" fill="none" xmlns="http://www.w3.org/2000/svg">
    <path d="M15.54 10.0205C12.593 10.0205 10.1992 12.4143 10.1992 15.3613C10.1992 18.3084 12.593 20.708 15.54 20.708C18.4871 20.708 20.8867 18.3084 20.8867 15.3613C20.8867 12.4143 18.4871 10.0205 15.54 10.0205Z" fill="black"/>
    <path d="M23.6008 0.800781H7.47933C3.89743 0.800781 0.979492 3.71872 0.979492 7.30062V23.4221C0.979492 27.0098 3.89743 29.9219 7.47933 29.9219H23.6008C27.1885 29.9219 30.1006 27.0098 30.1006 23.4221V7.30062C30.1006 3.71872 27.1885 0.800781 23.6008 0.800781ZM15.5401 24.7966C10.339 24.7966 6.10482 20.5624 6.10482 15.3614C6.10482 10.1603 10.339 5.93193 15.5401 5.93193C20.7411 5.93193 24.9753 10.1603 24.9753 15.3614C24.9753 20.5624 20.7411 24.7966 15.5401 24.7966ZM25.1733 7.64425C24.0726 7.64425 23.1756 6.75315 23.1756 5.65237C23.1756 4.55159 24.0726 3.65465 25.1733 3.65465C26.2741 3.65465 27.1711 4.55159 27.1711 5.65237C27.1711 6.75315 26.2741 7.64425 25.1733 7.64425Z" fill="black"/>
</svg>
