<svg width="20" height="21" viewBox="0 0 20 21" fill="none" xmlns="http://www.w3.org/2000/svg">
    <g clip-path="url(#clip0_966_349)">
        <g clip-path="url(#clip1_966_349)">
            <mask id="mask0_966_349" style="mask-type:luminance" maskUnits="userSpaceOnUse" x="0" y="0" width="20" height="21">
                <path d="M20 0H0V21H20V0Z" fill="white"/>
            </mask>
            <g mask="url(#mask0_966_349)">
                <path d="M5.08 4.00984C5.08 4.54317 4.88667 4.9965 4.5 5.36984C4.11333 5.74317 3.62 5.92984 3.02 5.92984C2.42 5.92984 1.93333 5.74317 1.56 5.36984C1.18667 4.9965 1 4.5365 1 3.98984C1 3.44317 1.18667 2.98984 1.56 2.62984C1.93333 2.26984 2.42667 2.08984 3.04 2.08984C3.65333 2.08984 4.14 2.26984 4.5 2.62984C4.86 2.98984 5.05333 3.44984 5.08 4.00984ZM1.12 19.8098V7.44984H4.96V19.8098H1.12ZM7.24 11.4098C7.24 10.2632 7.21333 8.94317 7.16 7.44984H10.48L10.68 9.16984H10.76C11.56 7.8365 12.8267 7.16984 14.56 7.16984C15.8933 7.16984 16.9667 7.6165 17.78 8.50984C18.5933 9.40317 19 10.7298 19 12.4898V19.8098H15.16V12.9698C15.16 11.1832 14.5067 10.2898 13.2 10.2898C12.2667 10.2898 11.6133 10.7698 11.24 11.7298C11.16 11.8898 11.12 12.2098 11.12 12.6898V19.8098H7.24V11.4098Z" fill="black"/>
            </g>
        </g>
    </g>
    <defs>
        <clipPath id="clip0_966_349">
            <rect width="20" height="21" fill="white"/>
        </clipPath>
        <clipPath id="clip1_966_349">
            <rect width="20" height="21" fill="white"/>
        </clipPath>
    </defs>
</svg>
