<svg width="19" height="21" viewBox="0 0 19 21" fill="none" xmlns="http://www.w3.org/2000/svg">
    <path d="M9.57399 0.394531C6.08801 0.394531 3.18054 3.20261 3.18054 6.78798C3.18054 8.15199 3.59042 9.36829 4.37705 10.508L9.08471 17.8539C9.3131 18.211 9.83534 18.2103 10.0633 17.8539L14.7914 10.483C15.561 9.39495 15.9674 8.11731 15.9674 6.78798C15.9674 3.26263 13.0993 0.394531 9.57399 0.394531ZM9.57399 9.69409C7.97164 9.69409 6.66788 8.39033 6.66788 6.78798C6.66788 5.18562 7.97164 3.88187 9.57399 3.88187C11.1763 3.88187 12.4801 5.18562 12.4801 6.78798C12.4801 8.39033 11.1763 9.69409 9.57399 9.69409Z" fill="#1E1E1E"/>
    <path d="M14.1178 13.751L11.1911 18.3266C10.4336 19.5078 8.71031 19.5039 7.95639 18.3278L5.02494 13.7522C2.4457 14.3485 0.855713 15.4409 0.855713 16.7464C0.855713 19.0117 5.34771 20.2337 9.57405 20.2337C13.8004 20.2337 18.2924 19.0117 18.2924 16.7464C18.2924 15.44 16.7002 14.347 14.1178 13.751Z" fill="#1E1E1E"/>
</svg>
