<svg width="212" height="49" viewBox="0 0 212 49" fill="none" xmlns="http://www.w3.org/2000/svg">
    <path d="M84.0148 21.4672C85.7393 21.4672 87.1474 21.0285 88.2291 20.151C89.3106 19.2734 89.8514 18.2021 89.8514 16.9266C89.8514 15.8246 89.5147 14.9777 88.8413 14.3859C88.1679 13.794 87.1882 13.3042 85.9127 12.9165L82.2803 11.7431C81.3517 11.4676 80.8824 11.0084 80.8824 10.3656C80.8824 9.92681 81.0966 9.54927 81.5354 9.24316C81.9741 8.93705 82.5353 8.784 83.2292 8.784C84.0353 8.784 84.7598 8.96766 85.4025 9.33499C86.0455 9.70232 86.525 10.1819 86.8312 10.7839L89.4943 10.0084C89.0759 8.93705 88.3004 8.04932 87.1679 7.33506C86.0352 6.62081 84.7087 6.26367 83.1883 6.26367C81.6884 6.26367 80.4334 6.67182 79.4334 7.48811C78.4334 8.30441 77.9335 9.29418 77.9437 10.4472C77.9335 11.3553 78.2294 12.1206 78.8314 12.7532C79.4334 13.3859 80.2396 13.8655 81.2599 14.1817L84.9945 15.3552C85.6985 15.5694 86.1985 15.8246 86.4944 16.1102C86.7902 16.3959 86.9332 16.7327 86.9332 17.1204C86.9332 17.6204 86.678 18.0489 86.1577 18.4163C85.6373 18.7836 84.9638 18.9673 84.1373 18.9673C83.1271 18.9673 82.2496 18.7123 81.515 18.2021C80.7803 17.6919 80.2599 17.0388 79.9538 16.2327L77.209 17.0592C77.658 18.3041 78.4742 19.3551 79.6579 20.2122C80.8416 21.0693 82.2803 21.4978 83.9638 21.4978L84.0148 21.4672ZM97.7287 18.6C97.3409 18.7938 96.9226 18.8959 96.4737 18.8959C95.6064 18.8959 95.1777 18.4469 95.1777 17.5592V13.0185H98.2696V10.6003H95.1777V7.1718H92.4023V10.6003H90.6269V13.0185H92.4023V17.5592C92.4023 18.7428 92.6983 19.6713 93.29 20.3346C93.8819 20.9978 94.7594 21.3345 95.9329 21.3345C96.7389 21.3345 97.5654 21.1713 98.4021 20.8346L97.7287 18.6ZM104.371 21.4672C105.82 21.4672 106.953 20.9366 107.769 19.8755V21.1713H110.555V10.6003H107.769V11.8757C106.953 10.8247 105.82 10.3044 104.371 10.3044C102.892 10.3044 101.647 10.8349 100.647 11.8961C99.647 12.9573 99.1471 14.294 99.1471 15.896C99.1471 17.4776 99.647 18.8041 100.647 19.8755C101.647 20.9468 102.882 21.4775 104.361 21.4775L104.371 21.4672ZM104.841 19.0081C103.973 19.0081 103.259 18.7123 102.698 18.1306C102.137 17.5491 101.861 16.7939 101.861 15.8756C101.861 14.9674 102.137 14.2225 102.698 13.641C103.259 13.0594 103.973 12.7737 104.841 12.7737C105.688 12.7737 106.402 13.0696 106.984 13.6512C107.565 14.2327 107.851 14.9674 107.851 15.8552C107.851 16.7634 107.565 17.5081 106.984 18.1001C106.402 18.6918 105.688 18.9878 104.841 18.9878V19.0081ZM116.014 12.1614V10.6003H113.259V21.1713H116.014V16.5694C116.014 15.1817 116.31 14.2022 116.891 13.6307C117.473 13.0594 118.34 12.8655 119.493 13.0491V10.4574C117.861 10.2329 116.697 10.8043 116.004 12.1716L116.014 12.1614ZM127.768 18.6C127.381 18.7938 126.962 18.8959 126.513 18.8959C125.646 18.8959 125.218 18.4469 125.218 17.5592V13.0185H128.309V10.6003H125.218V7.1718H122.442V10.6003H120.667V13.0185H122.442V17.5592C122.442 18.7428 122.738 19.6713 123.33 20.3346C123.922 20.9978 124.799 21.3345 125.973 21.3345C126.779 21.3345 127.605 21.1713 128.442 20.8346L127.768 18.6ZM137.738 10.6003V15.8042C137.738 16.7531 137.503 17.5081 137.044 18.0694C136.584 18.6306 135.962 18.9061 135.177 18.9061C134.442 18.9061 133.881 18.6714 133.493 18.2021C133.106 17.7326 132.911 17.0899 132.911 16.2634V10.6207H130.156V16.7837C130.156 18.2428 130.514 19.3958 131.217 20.2326C131.921 21.0693 132.962 21.4877 134.329 21.4877C135.769 21.4877 136.901 20.9468 137.727 19.855V21.1917H140.493V10.6207L137.738 10.6003ZM149.401 10.3044C147.951 10.3044 146.809 10.8247 145.972 11.8757V10.6003H143.217V25.5589H145.972V19.8755C146.818 20.9366 147.961 21.4672 149.401 21.4672C150.86 21.4672 152.094 20.9366 153.095 19.8653C154.094 18.7938 154.594 17.4674 154.594 15.8857C154.594 14.2838 154.094 12.9573 153.095 11.8961C152.094 10.8349 150.86 10.3044 149.38 10.3044H149.401ZM148.9 18.9979C148.053 18.9979 147.339 18.7021 146.757 18.1101C146.176 17.5184 145.89 16.7734 145.89 15.8654C145.89 14.9777 146.176 14.243 146.757 13.6614C147.339 13.0798 148.053 12.7839 148.9 12.7839C149.767 12.7839 150.482 13.0696 151.043 13.6512C151.604 14.2327 151.88 14.9777 151.88 15.8857C151.88 16.8041 151.604 17.5592 151.043 18.1408C150.482 18.7224 149.767 19.0183 148.9 19.0183V18.9979ZM171.817 13.4982C173.032 12.8451 173.634 11.8247 173.634 10.4472C173.623 9.29418 173.176 8.35544 172.287 7.63096C171.399 6.9065 170.237 6.54937 168.797 6.54937H161.818V21.1815H169.196C170.736 21.1815 171.951 20.804 172.839 20.0591C173.726 19.3143 174.165 18.3041 174.165 17.0388C174.165 16.2327 173.961 15.5287 173.542 14.9164C173.124 14.3042 172.542 13.8348 171.798 13.4982H171.817ZM168.767 9.00847C169.369 8.99827 169.859 9.16153 170.237 9.49825C170.613 9.83497 170.797 10.2635 170.797 10.7839C170.808 11.3043 170.624 11.7431 170.257 12.1002C169.89 12.4573 169.409 12.6308 168.828 12.6308H164.614V9.01867L168.767 9.00847ZM169.165 18.6918H164.614V14.896H169.185C169.838 14.896 170.358 15.0695 170.747 15.4267C171.134 15.7837 171.328 16.2327 171.328 16.7734C171.328 17.3347 171.134 17.7939 170.747 18.1511C170.358 18.5081 169.838 18.6918 169.185 18.6918H169.165ZM180.879 21.4672C182.327 21.4672 183.46 20.9366 184.277 19.8755V21.1713H187.063V10.6003H184.277V11.8757C183.46 10.8247 182.327 10.3044 180.879 10.3044C179.399 10.3044 178.155 10.8349 177.154 11.8961C176.154 12.9573 175.655 14.294 175.655 15.896C175.655 17.4776 176.154 18.8041 177.154 19.8755C178.155 20.9468 179.39 21.4775 180.868 21.4775L180.879 21.4672ZM181.348 19.0081C180.481 19.0081 179.766 18.7123 179.206 18.1306C178.644 17.5491 178.368 16.7939 178.368 15.8756C178.368 14.9674 178.644 14.2225 179.206 13.641C179.766 13.0594 180.481 12.7737 181.348 12.7737C182.195 12.7737 182.91 13.0696 183.491 13.6512C184.072 14.2327 184.358 14.9674 184.358 15.8552C184.358 16.7634 184.072 17.5081 183.491 18.1001C182.91 18.6918 182.195 18.9878 181.348 18.9878V19.0081ZM193.93 21.4672C195.266 21.4672 196.358 21.1407 197.215 20.4877C198.072 19.8346 198.501 19.0081 198.501 18.0081C198.501 17.1409 198.246 16.498 197.725 16.0694C197.205 15.6409 196.47 15.2837 195.521 15.0082L192.889 14.2532C192.307 14.0797 192.011 13.8042 192.011 13.4165C192.011 13.1614 192.153 12.9369 192.45 12.743C192.746 12.5492 193.102 12.4573 193.522 12.4573C194.563 12.4573 195.317 12.8655 195.776 13.692L198.225 12.9777C197.889 12.1716 197.297 11.5288 196.459 11.039C195.623 10.5492 194.644 10.3044 193.531 10.3044C192.358 10.3044 191.359 10.6105 190.531 11.2329C189.705 11.8553 189.287 12.6002 189.287 13.4777C189.287 14.8552 190.155 15.7939 191.898 16.2939L194.592 17.0899C195.378 17.3246 195.767 17.6714 195.767 18.1306C195.767 18.4368 195.602 18.6918 195.276 18.9061C194.95 19.1203 194.532 19.2224 194.011 19.2224C193.328 19.2224 192.746 19.0591 192.256 18.7326C191.766 18.4061 191.43 17.9878 191.246 17.4674L188.756 18.1918C189.032 19.0796 189.644 19.8448 190.593 20.4877C191.542 21.1305 192.644 21.457 193.899 21.457L193.93 21.4672ZM205.583 21.4672C206.858 21.4672 207.939 21.1611 208.827 20.5591C209.715 19.9571 210.327 19.253 210.674 18.4571L208.183 17.7224C207.694 18.651 206.837 19.1203 205.612 19.1203C204.694 19.1203 203.98 18.9061 203.459 18.4673C202.939 18.0286 202.633 17.4469 202.541 16.7224H210.756C210.796 16.498 210.817 16.1714 210.817 15.7429C210.817 14.1817 210.327 12.8859 209.347 11.8553C208.367 10.8247 207.031 10.3146 205.347 10.3146C203.704 10.3146 202.368 10.8451 201.348 11.9063C200.328 12.9675 199.818 14.3042 199.818 15.9062C199.818 17.5796 200.347 18.9265 201.409 19.9468C202.47 20.9673 203.848 21.4775 205.551 21.4775L205.583 21.4672ZM202.521 14.998C202.602 14.3552 202.899 13.8042 203.409 13.345C203.919 12.8859 204.552 12.6512 205.317 12.6512C206.112 12.6512 206.756 12.8757 207.255 13.3247C207.755 13.7737 208.041 14.3348 208.112 14.998H202.521Z" fill="#FCFCFC"/>
    <path fill-rule="evenodd" clip-rule="evenodd" d="M0 24.2166C0 27.7931 2.87816 30.6714 8.63449 36.4276L11.6873 39.4804C17.4435 45.2368 20.3217 48.1149 23.8983 48.1149C26.4397 48.1149 28.6284 46.6617 31.7478 43.7551L42.2468 33.2552H34.8226V30.0172H44.5364H45.2348C46.9427 27.9055 47.7965 26.1646 47.7965 24.2166C47.7965 20.6401 44.9184 17.762 39.162 12.0056L36.1093 8.95285C34.6132 7.45679 33.3116 6.15515 32.1415 5.04791V7.32135V8.2697V17.9835H28.9037V10.5593L18.4041 21.0588L16.1146 18.7692L26.6141 8.2697H19.1898V5.03176H28.9037H32.1244C28.802 1.88949 26.5407 0.318359 23.8983 0.318359C20.3217 0.318359 17.4436 3.19652 11.6873 8.95285L8.6345 12.0056C2.87817 17.7619 0 20.6401 0 24.2166Z" fill="url(#paint0_linear_519_345)"/>
    <path d="M122.432 28.6525H119.309V35.9686H119.84V33.1881H122.401C123.131 33.1881 123.707 32.9636 124.125 32.5095C124.544 32.0555 124.753 31.53 124.753 30.933C124.753 30.3412 124.544 29.8158 124.125 29.3515C123.707 28.8873 123.141 28.6576 122.432 28.6576V28.6525ZM122.391 32.7034H119.84V29.1525H122.421C122.957 29.1525 123.396 29.331 123.733 29.6831C124.069 30.0352 124.238 30.4535 124.238 30.933C124.238 31.4127 124.069 31.831 123.738 32.183C123.406 32.535 122.957 32.7136 122.391 32.7136V32.7034ZM128.055 36.0961C128.825 36.0961 129.468 35.8359 129.983 35.3156C130.498 34.7951 130.753 34.1472 130.753 33.3769C130.753 32.6065 130.493 31.9637 129.978 31.4484C129.462 30.933 128.82 30.678 128.05 30.678C127.269 30.678 126.616 30.9382 126.096 31.4535C125.575 31.9687 125.315 32.6116 125.315 33.3819C125.315 34.1524 125.575 34.8003 126.096 35.3206C126.616 35.8411 127.264 36.1013 128.045 36.1013L128.055 36.0961ZM128.045 35.6166C127.417 35.6166 126.892 35.4074 126.468 34.9839C126.045 34.5604 125.83 34.0299 125.83 33.3972C125.83 32.7647 126.045 32.234 126.468 31.8055C126.892 31.3769 127.417 31.1627 128.045 31.1627C128.662 31.1627 129.182 31.3769 129.606 31.8055C130.029 32.234 130.238 32.7647 130.238 33.3972C130.238 34.0299 130.029 34.5604 129.606 34.9839C129.182 35.4074 128.662 35.6216 128.045 35.6216V35.6166ZM138.131 30.7953L136.627 35.2901L135.163 30.7953H134.693L133.228 35.2901L131.724 30.7953H131.183L132.959 35.9686H133.489L134.934 31.632L136.367 35.9686H136.897L138.672 30.7953H138.131ZM141.852 36.0961C142.459 36.0961 142.964 35.9533 143.367 35.6726C143.771 35.3921 144.076 35.0349 144.286 34.6013L143.79 34.4534C143.642 34.7799 143.403 35.0554 143.066 35.2799C142.73 35.5043 142.326 35.6166 141.862 35.6166C141.234 35.6166 140.724 35.4278 140.332 35.0503C139.939 34.6727 139.73 34.1779 139.704 33.5605H144.321C144.326 33.4738 144.331 33.3667 144.331 33.2391C144.331 32.4994 144.102 31.8872 143.648 31.4024C143.193 30.9177 142.572 30.6729 141.781 30.6729C141.016 30.6729 140.388 30.933 139.904 31.4484C139.418 31.9637 139.173 32.6065 139.173 33.3769C139.173 34.1982 139.423 34.8564 139.928 35.3513C140.433 35.8461 141.077 36.0961 141.862 36.0961H141.852ZM139.699 33.0962C139.735 32.5504 139.944 32.0912 140.332 31.7137C140.719 31.3362 141.199 31.1473 141.776 31.1473C142.383 31.1473 142.862 31.3259 143.219 31.6779C143.576 32.03 143.776 32.4994 143.816 33.0861L139.699 33.0962ZM146.189 31.7595V30.7953H145.679V35.9686H146.189V33.4584C146.189 32.6269 146.362 32.03 146.709 31.6627C147.056 31.2953 147.526 31.1473 148.118 31.2137V30.734C147.653 30.6729 147.256 30.734 146.924 30.9229C146.593 31.1117 146.347 31.3922 146.189 31.7647V31.7595ZM151.232 36.0961C151.837 36.0961 152.344 35.9533 152.746 35.6726C153.149 35.3921 153.456 35.0349 153.664 34.6013L153.17 34.4534C153.022 34.7799 152.782 35.0554 152.445 35.2799C152.108 35.5043 151.705 35.6166 151.241 35.6166C150.614 35.6166 150.104 35.4278 149.71 35.0503C149.318 34.6727 149.108 34.1779 149.082 33.5605H153.7C153.706 33.4738 153.711 33.3667 153.711 33.2391C153.711 32.4994 153.48 31.8872 153.027 31.4024C152.573 30.9177 151.95 30.6729 151.159 30.6729C150.394 30.6729 149.766 30.933 149.282 31.4484C148.798 31.9637 148.553 32.6065 148.553 33.3769C148.553 34.1982 148.803 34.8564 149.308 35.3513C149.813 35.8461 150.456 36.0961 151.241 36.0961H151.232ZM149.077 33.0962C149.114 32.5504 149.323 32.0912 149.71 31.7137C150.099 31.3362 150.578 31.1473 151.154 31.1473C151.761 31.1473 152.241 31.3259 152.599 31.6779C152.956 32.03 153.154 32.4994 153.195 33.0861L149.077 33.0962ZM159.594 28.3413V31.882C159.37 31.5095 159.063 31.2137 158.681 30.9994C158.298 30.7852 157.854 30.678 157.354 30.678C156.594 30.678 155.961 30.9382 155.461 31.4535C154.961 31.9687 154.711 32.6116 154.711 33.3819C154.711 34.1524 154.961 34.8003 155.461 35.3206C155.961 35.8411 156.589 36.1013 157.349 36.1013C157.854 36.1013 158.298 35.9941 158.686 35.7798C159.073 35.5656 159.375 35.2646 159.588 34.8819V35.9788H160.098V28.3515L159.594 28.3413ZM157.406 35.6319C156.773 35.6319 156.252 35.4226 155.839 34.9993C155.426 34.5758 155.222 34.0452 155.222 33.4024C155.222 32.7595 155.426 32.2289 155.834 31.8055C156.242 31.382 156.767 31.1677 157.406 31.1677C158.013 31.1677 158.528 31.382 158.957 31.8157C159.385 32.2494 159.599 32.7799 159.599 33.4074C159.599 34.0349 159.385 34.5656 158.957 34.9993C158.528 35.4329 158.013 35.6471 157.406 35.6471V35.6319ZM167.355 30.6729C166.855 30.6729 166.411 30.78 166.029 30.9943C165.646 31.2085 165.34 31.5045 165.115 31.882V28.3413H164.605V35.9686H165.115V34.8717C165.335 35.2543 165.636 35.5553 166.024 35.7696C166.411 35.9839 166.855 36.0911 167.355 36.0911C168.116 36.0911 168.748 35.8308 169.248 35.3104C169.749 34.7901 169.998 34.1421 169.998 33.3717C169.998 32.6014 169.749 31.9585 169.244 31.4432C168.737 30.928 168.106 30.6729 167.346 30.6729H167.355ZM167.294 35.6216C166.687 35.6216 166.172 35.4074 165.743 34.9738C165.314 34.5401 165.101 34.0094 165.101 33.3819C165.101 32.7544 165.314 32.2239 165.743 31.7902C166.172 31.3565 166.687 31.1422 167.294 31.1422C167.937 31.1422 168.463 31.3565 168.871 31.78C169.279 32.2034 169.483 32.7392 169.483 33.3819C169.483 34.0248 169.279 34.5554 168.866 34.9789C168.453 35.4023 167.932 35.6166 167.299 35.6166L167.294 35.6216ZM175.055 30.7953L173.1 35.2901L170.978 30.7953H170.418L172.831 35.8768L171.825 38.1625H172.382L175.611 30.7953H175.055ZM179.444 35.9686H179.975V28.6525H179.444V35.9686ZM187.19 28.6525H181.007V29.1475H183.838V35.9686H184.369V29.1475H187.19V28.6525ZM194.146 28.6525H191.023V35.9686H191.554V33.1881H194.115C194.845 33.1881 195.421 32.9636 195.839 32.5095C196.257 32.0555 196.467 31.53 196.467 30.933C196.467 30.3412 196.257 29.8158 195.839 29.3515C195.421 28.8873 194.854 28.6576 194.146 28.6576V28.6525ZM194.104 32.7034H191.554V29.1525H194.135C194.671 29.1525 195.109 29.331 195.447 29.6831C195.783 30.0352 195.952 30.4535 195.952 30.933C195.952 31.4127 195.783 31.831 195.451 32.183C195.119 32.535 194.671 32.7136 194.104 32.7136V32.7034ZM199.682 36.0961C200.181 36.0961 200.625 35.989 201.014 35.7748C201.401 35.5604 201.702 35.2594 201.916 34.8768V35.9738H202.426V30.8004H201.916V31.8872C201.692 31.5147 201.385 31.2187 201.003 31.0045C200.62 30.7902 200.176 30.683 199.676 30.683C198.916 30.683 198.283 30.9432 197.784 31.4585C197.284 31.9739 197.034 32.6167 197.034 33.3871C197.034 34.1574 197.284 34.8054 197.784 35.3258C198.283 35.8461 198.911 36.1063 199.671 36.1063L199.682 36.0961ZM199.728 35.6319C199.095 35.6319 198.575 35.4226 198.162 34.9993C197.749 34.5758 197.544 34.0452 197.544 33.4024C197.544 32.7595 197.749 32.2289 198.157 31.8055C198.564 31.382 199.09 31.1677 199.728 31.1677C200.335 31.1677 200.851 31.382 201.279 31.8157C201.708 32.2494 201.921 32.7799 201.921 33.4074C201.921 34.0349 201.708 34.5656 201.279 34.9993C200.851 35.4329 200.335 35.6471 199.728 35.6471V35.6319ZM204.646 31.7595V30.7953H204.136V35.9686H204.646V33.4584C204.646 32.6269 204.82 32.03 205.167 31.6627C205.514 31.2953 205.984 31.1473 206.575 31.2137V30.734C206.111 30.6729 205.713 30.734 205.382 30.9229C205.049 31.1117 204.804 31.3922 204.646 31.7647V31.7595ZM211.362 35.9686H212L209.459 33.0452L211.693 30.7953H211.015L208.224 33.5861V28.3413H207.713V35.9686H208.224V34.2849L209.112 33.3972L211.362 35.9686Z" fill="#FCFCFC"/>
    <path fill-rule="evenodd" clip-rule="evenodd" d="M16.0934 24.5867C16.0934 28.1632 18.9716 31.0414 24.7279 36.7977L27.7806 39.8506C29.2786 41.3485 30.5817 42.6515 31.7529 43.7597L31.7472 43.754L42.2466 33.2546H34.8225V30.0166H44.5363H47.7741V32.3063V33.2546V42.9684H44.5363V35.5441L34.1723 45.9081C36.2924 47.6261 38.0378 48.4849 39.9916 48.4849C43.5682 48.4849 46.4464 45.6069 52.2027 39.8506L55.2554 36.7977C61.0117 31.0414 63.8899 28.1632 63.8899 24.5867C63.8899 21.0102 61.0118 18.1321 55.2555 12.3758L52.2027 9.32297C46.4464 3.56664 43.5682 0.688477 39.9916 0.688477C37.45 0.688477 35.2612 2.14194 32.1414 5.04887V7.32078V8.26914V17.9829H28.9034V10.5587L18.404 21.0582L17.5823 20.2365C16.5897 21.7368 16.0934 23.1016 16.0934 24.5867Z" fill="url(#paint1_linear_519_345)"/>
    <defs>
        <linearGradient id="paint0_linear_519_345" x1="10.1609" y1="10.4795" x2="37.6351" y2="37.9543" gradientUnits="userSpaceOnUse">
            <stop stop-color="#83C805"/>
            <stop offset="1" stop-color="#ABDB06"/>
        </linearGradient>
        <linearGradient id="paint1_linear_519_345" x1="26.2542" y1="10.8496" x2="53.7285" y2="38.3243" gradientUnits="userSpaceOnUse">
            <stop stop-color="#83C805"/>
            <stop offset="1" stop-color="#ABDB06"/>
        </linearGradient>
    </defs>
</svg>
