<svg width="30" height="30" viewBox="0 0 30 30" fill="none" xmlns="http://www.w3.org/2000/svg">
    <path d="M22.0721 20.3022C22.0721 20.3022 22.071 20.3033 22.0704 20.3039V20.2993L21.332 21.0331C20.3773 22.0004 18.9859 22.3983 17.664 22.0824C16.3324 21.726 15.0657 21.1584 13.9134 20.4018C12.8425 19.7175 11.8508 18.9176 10.9547 18.0164C10.1303 17.1983 9.39025 16.2999 8.74408 15.3349C8.03757 14.2965 7.47852 13.1653 7.08285 11.9732C6.62911 10.5727 7.00485 9.0367 8.05465 8.00398L8.91943 7.1392C9.15968 6.89781 9.55079 6.89668 9.79218 7.13749C9.79275 7.13806 9.79332 7.13863 9.79389 7.1392L12.5243 9.8696C12.7657 10.1098 12.7668 10.501 12.526 10.7423L12.5243 10.7441L10.9211 12.3472C10.4611 12.8021 10.403 13.5251 10.7851 14.0477C11.3646 14.8436 12.0068 15.5923 12.7042 16.2874C13.4819 17.0685 14.3273 17.779 15.2302 18.4103C15.7523 18.7741 16.4599 18.7132 16.9108 18.2646L18.4605 16.6905C18.7007 16.4491 19.0912 16.4479 19.3332 16.6888L19.3349 16.6905L22.0699 19.4305C22.3112 19.6708 22.3124 20.0613 22.0721 20.3027V20.3022Z" fill="black"/>
</svg>
